<svg width="40" height="40" viewBox="0 0 40 40" fill="none" xmlns="http://www.w3.org/2000/svg">
<path d="M10.5289 4.90931C8.08145 5.35681 6.11574 7.17571 5.61072 9.44933C5.46309 10.1422 5.46309 32.5753 5.61072 33.2682C6.07689 35.3614 7.71628 37.0215 9.97723 37.6856L10.5599 37.8516H20H29.4401L30.0228 37.6856C32.2604 37.0359 33.9231 35.347 34.3893 33.2682C34.5369 32.5753 34.5369 10.1422 34.3893 9.44933C33.9309 7.37781 32.3381 5.75379 30.0616 5.03923L29.5178 4.866L20.1942 4.85156C15.0663 4.85156 10.7153 4.87322 10.5289 4.90931ZM12.1527 9.074C12.1527 11.2321 12.1916 11.4848 12.6422 12.0983C12.9918 12.5674 13.5668 12.9572 14.165 13.1304C14.6312 13.2676 14.8876 13.2748 20 13.2748C25.1124 13.2748 25.3688 13.2676 25.835 13.1304C26.4332 12.9572 27.0082 12.5674 27.3578 12.0983C27.8084 11.4848 27.8473 11.2321 27.8473 9.074V7.13962H28.3368C29.3624 7.14684 30.1393 7.44999 30.8852 8.1429C31.4835 8.69868 31.8331 9.31941 31.9574 10.0268C32.0739 10.6764 32.0739 32.0412 31.9574 32.6908C31.7321 34.0117 30.5356 35.2098 29.1603 35.4985C28.7019 35.5996 11.3058 35.5996 10.8552 35.5058C9.4722 35.2098 8.26792 34.0117 8.0426 32.6908C7.92605 32.0412 7.92605 10.6764 8.0426 10.0268C8.16691 9.31941 8.51654 8.69868 9.1148 8.1429C9.85291 7.46442 10.6299 7.15406 11.6322 7.14684L12.1527 7.13962V9.074ZM25.361 8.93686C25.361 10.4815 25.3455 10.7558 25.2367 10.8496C25.1279 10.9506 24.553 10.9651 20.0311 10.9651C16.6668 10.9651 14.8876 10.9362 14.7866 10.8929C14.6468 10.8207 14.639 10.7197 14.639 8.98017V7.13962H20H25.361V8.93686Z" fill="#386641" stroke="#386641"/>
<path d="M12.852 17.2591C12.3936 17.4756 12.1527 17.8148 12.1527 18.2479C12.1527 18.681 12.3703 19.0491 12.7432 19.244C13.0229 19.3955 13.1472 19.41 14.2194 19.41C15.3072 19.41 15.4082 19.3955 15.649 19.244C16.2395 18.8759 16.4104 18.3489 16.123 17.7932C15.8277 17.2374 15.5713 17.1436 14.2894 17.1147C13.2793 17.093 13.1783 17.1075 12.852 17.2591Z" fill="#386641" stroke="#386641"/>
<path d="M19.6815 17.1652C19.0987 17.3385 18.7103 17.8509 18.7802 18.3778C18.819 18.7459 19.0055 19.013 19.3784 19.244L19.6348 19.41H23.2788C26.4876 19.41 26.9616 19.3955 27.1946 19.2945C27.5831 19.1213 27.7929 18.8037 27.8318 18.3345C27.8628 17.8581 27.6764 17.5333 27.2257 17.2879C26.9616 17.1436 26.8295 17.1364 23.4186 17.1219C21.4762 17.1147 19.7902 17.1364 19.6815 17.1652Z" fill="#386641" stroke="#386641"/>
<path d="M12.7898 23.4303C12.4091 23.6035 12.2071 23.9211 12.1683 24.3831C12.1372 24.8595 12.3236 25.1843 12.7743 25.4297C13.0151 25.5668 13.1783 25.5812 14.2117 25.5812C15.2916 25.5812 15.4004 25.5668 15.6646 25.4152C16.0453 25.1915 16.3017 24.7007 16.2473 24.3037C16.2007 23.9572 16.0142 23.6974 15.649 23.4664C15.4082 23.3221 15.3072 23.3076 14.2194 23.3076C13.2948 23.3076 12.9918 23.3365 12.7898 23.4303Z" fill="#386641" stroke="#386641"/>
<path d="M19.3784 23.4664C19.0055 23.7046 18.819 23.9717 18.7802 24.3398C18.7258 24.744 18.9744 25.1915 19.3784 25.4224C19.6504 25.5812 19.6737 25.5812 23.3021 25.5812C26.845 25.5812 26.9616 25.574 27.2257 25.4297C27.6764 25.1843 27.8628 24.8595 27.8317 24.3831C27.7929 23.9139 27.5831 23.5963 27.1946 23.4231C26.9616 23.3221 26.4876 23.3076 23.2788 23.3076H19.6348L19.3784 23.4664Z" fill="#386641" stroke="#386641"/>
<path d="M12.9297 29.5221C12.2382 29.782 11.9274 30.6265 12.3314 31.175C12.6966 31.6731 12.8209 31.7164 14.0951 31.738C15.4159 31.7669 15.6568 31.7019 16.022 31.2616C16.325 30.8935 16.325 30.3017 16.022 29.9335C15.6723 29.5077 15.4237 29.4427 14.1961 29.45C13.6056 29.45 13.0384 29.486 12.9297 29.5221Z" fill="#386641" stroke="#386641"/>
<path d="M19.4717 29.5655C19.3318 29.6304 19.122 29.7964 19.0055 29.9336C18.7025 30.3017 18.7102 30.9008 19.0055 31.2617C19.425 31.7669 19.3396 31.7597 23.4109 31.738C26.9771 31.7164 27.0626 31.7164 27.2801 31.5648C28.0415 31.0379 28.0415 30.1573 27.2801 29.6304C27.0626 29.4789 26.9771 29.4789 23.3953 29.4644C20.1165 29.4428 19.697 29.4572 19.4717 29.5655Z" fill="#386641" stroke="#386641"/>
</svg>
