<svg width="40" height="40" viewBox="0 0 40 40" fill="none" xmlns="http://www.w3.org/2000/svg">
<path d="M12.6953 4.81054C12.1641 5.04492 11.8203 5.49023 11.6875 6.12304C11.6406 6.31836 11.6016 6.34179 11.3438 6.34179C10.8047 6.34179 9.63281 6.57617 8.9375 6.81836C6.10156 7.80273 3.98438 10.2793 3.47656 13.1934C3.29688 14.2012 3.30469 30.2402 3.47656 31.1621C4.125 34.584 6.75781 37.2168 10.1797 37.8652C11.1094 38.0449 28.8906 38.0449 29.8203 37.8652C33.3125 37.2012 36.0156 34.4277 36.5625 30.9512C36.625 30.5215 36.6406 28.0605 36.625 21.8105C36.6016 13.2949 36.6016 13.2559 36.4297 12.6543C35.9922 11.1074 35.3125 9.92773 34.2266 8.83398C33.1953 7.79492 32.2109 7.18554 30.8594 6.74023C30.3047 6.55273 29.1172 6.34179 28.6563 6.34179C28.3984 6.34179 28.3594 6.31836 28.3203 6.12304C28.1094 5.05273 27.0391 4.43554 26.0547 4.81054C25.5078 5.02148 25 5.70117 25 6.24023C25 6.31836 23.9453 6.34179 20 6.34179C16.0547 6.34179 15 6.31836 15 6.24023C15 5.73242 14.5469 5.08398 14.0234 4.84961C13.6563 4.67773 13.0313 4.66211 12.6953 4.81054ZM11.6563 10.7402C11.6797 11.7012 11.6953 11.8027 11.8984 12.1465C12.4766 13.1309 13.8047 13.2715 14.5625 12.4355C14.9219 12.0371 15 11.7168 15 10.6152V9.70117H20H25V10.6152C25 11.7168 25.0781 12.0371 25.4375 12.4355C26.1953 13.2715 27.5234 13.1309 28.1016 12.1465C28.3047 11.8027 28.3203 11.7012 28.3438 10.7402L28.375 9.70117H28.7031C29.5156 9.70117 30.8984 10.2793 31.625 10.9121C32.1719 11.4043 32.7109 12.1699 32.9688 12.8496C33.1875 13.4199 33.3984 14.498 33.3203 14.6309C33.2578 14.7246 6.74219 14.7246 6.67969 14.6309C6.61719 14.5137 6.78125 13.5605 6.96094 12.998C7.17188 12.3496 7.78125 11.4512 8.34375 10.9512C9.09375 10.2793 10.4141 9.71679 11.2578 9.70898L11.625 9.70117L11.6563 10.7402ZM33.3203 24.2324V30.4434L33.1406 31.0293C32.875 31.8887 32.4688 32.5605 31.8438 33.1855C31.2188 33.8105 30.5469 34.2168 29.6875 34.4824L29.1016 34.6621H20H10.8984L10.3125 34.4824C9.38281 34.1934 8.85156 33.8652 8.16406 33.1777C7.71094 32.7246 7.45313 32.3887 7.24219 31.9668C6.65625 30.8027 6.6875 31.2168 6.66406 24.3574C6.64844 20.9668 6.64844 18.1465 6.67188 18.084C6.71094 17.998 8.94531 17.9824 20.0156 17.998L33.3203 18.0215V24.2324Z" fill="#6A994E"/>
<path d="M12.5859 21.5449C11.5625 22.0605 11.3594 23.334 12.1875 24.1543C13.0078 24.9824 14.2812 24.7793 14.7969 23.7558C15.1328 23.0683 15.0312 22.3808 14.4922 21.8496C13.9609 21.3105 13.2734 21.209 12.5859 21.5449Z" fill="#6A994E"/>
<path d="M19.4219 21.459C18.4531 21.8027 18.0469 23.0918 18.6406 23.9433C19.3125 24.8965 20.6875 24.8887 21.3594 23.9355C21.6719 23.4902 21.7344 22.7715 21.5 22.3105C21.0859 21.498 20.2578 21.1621 19.4219 21.459Z" fill="#6A994E"/>
<path d="M26.0938 21.4434C25.5 21.6309 25 22.3809 25 23.0762C25 23.4746 25.3438 24.0996 25.7031 24.3496C26.4141 24.8418 27.2031 24.7715 27.8125 24.1543C29.0703 22.9043 27.8047 20.9043 26.0938 21.4434Z" fill="#6A994E"/>
<path d="M12.8594 28.0762C12.3906 28.2012 11.8437 28.7871 11.7266 29.2793C11.5469 30.0449 11.8984 30.7949 12.6016 31.1465C13.2734 31.4824 13.9609 31.3652 14.5 30.834C15.6953 29.6387 14.5 27.6309 12.8594 28.0762Z" fill="#6A994E"/>
<path d="M19.6328 28.0527C18.3359 28.3809 17.9219 30.0137 18.9063 30.9043C19.9609 31.8574 21.6328 31.1074 21.6406 29.6777C21.6406 29.2559 21.4844 28.8184 21.2266 28.5449C20.8516 28.1465 20.1484 27.9277 19.6328 28.0527Z" fill="#6A994E"/>
<path d="M26.2656 28.0606C25.8203 28.1621 25.4219 28.4903 25.2031 28.9278C24.8672 29.6153 24.9687 30.3028 25.5078 30.834C26.0391 31.3731 26.7266 31.4746 27.4141 31.1387C28.4375 30.6231 28.6406 29.3496 27.8203 28.5293C27.3516 28.0606 26.875 27.9121 26.2656 28.0606Z" fill="#6A994E"/>
</svg>
