<svg width="40" height="40" viewBox="0 0 40 40" fill="none" xmlns="http://www.w3.org/2000/svg">
<path d="M10.5289 5.05774C8.08145 5.50525 6.11574 7.32415 5.61072 9.59777C5.46309 10.2907 5.46309 32.7238 5.61072 33.4167C6.07689 35.5098 7.71628 37.1699 9.97723 37.834L10.5599 38H20H29.4401L30.0228 37.834C32.2604 37.1844 33.9231 35.4954 34.3893 33.4167C34.5369 32.7238 34.5369 10.2907 34.3893 9.59777C33.9309 7.52625 32.3381 5.90223 30.0616 5.18766L29.5178 5.01444L20.1942 5C15.0663 5 10.7153 5.02165 10.5289 5.05774ZM12.1527 9.22244C12.1527 11.3806 12.1916 11.6332 12.6422 12.2467C12.9918 12.7159 13.5668 13.1056 14.165 13.2789C14.6312 13.416 14.8876 13.4232 20 13.4232C25.1124 13.4232 25.3688 13.416 25.835 13.2789C26.4332 13.1056 27.0082 12.7159 27.3578 12.2467C27.8084 11.6332 27.8473 11.3806 27.8473 9.22244V7.28806H28.3368C29.3624 7.29528 30.1393 7.59843 30.8852 8.29134C31.4835 8.84711 31.8331 9.46785 31.9574 10.1752C32.0739 10.8248 32.0739 32.1896 31.9574 32.8392C31.7321 34.1601 30.5356 35.3583 29.1603 35.647C28.7019 35.748 11.3058 35.748 10.8552 35.6542C9.4722 35.3583 8.26792 34.1601 8.0426 32.8392C7.92605 32.1896 7.92605 10.8248 8.0426 10.1752C8.16691 9.46785 8.51654 8.84711 9.1148 8.29134C9.85291 7.61286 10.6299 7.30249 11.6322 7.29528L12.1527 7.28806V9.22244ZM25.361 9.0853C25.361 10.6299 25.3455 10.9042 25.2367 10.998C25.1279 11.0991 24.553 11.1135 20.0311 11.1135C16.6668 11.1135 14.8876 11.0846 14.7866 11.0413C14.6468 10.9692 14.639 10.8681 14.639 9.12861V7.28806H20H25.361V9.0853Z" fill="#6A994E" stroke="#6A994E"/>
<path d="M12.852 17.4075C12.3936 17.624 12.1527 17.9633 12.1527 18.3963C12.1527 18.8294 12.3703 19.1975 12.7432 19.3924C13.0229 19.544 13.1472 19.5584 14.2194 19.5584C15.3072 19.5584 15.4082 19.544 15.649 19.3924C16.2395 19.0243 16.4104 18.4974 16.123 17.9416C15.8277 17.3858 15.5713 17.292 14.2894 17.2631C13.2793 17.2415 13.1783 17.2559 12.852 17.4075Z" fill="#6A994E" stroke="#6A994E"/>
<path d="M19.6814 17.3137C19.0987 17.4869 18.7102 17.9994 18.7802 18.5263C18.819 18.8944 19.0055 19.1614 19.3784 19.3924L19.6348 19.5584H23.2788C26.4876 19.5584 26.9616 19.544 27.1946 19.4429C27.5831 19.2697 27.7929 18.9521 27.8317 18.483C27.8628 18.0066 27.6764 17.6818 27.2257 17.4364C26.9616 17.292 26.8295 17.2848 23.4186 17.2704C21.4762 17.2631 19.7902 17.2848 19.6814 17.3137Z" fill="#6A994E" stroke="#6A994E"/>
<path d="M12.7898 23.5788C12.4091 23.752 12.2071 24.0696 12.1683 24.5315C12.1372 25.0079 12.3236 25.3327 12.7743 25.5781C13.0151 25.7152 13.1783 25.7297 14.2117 25.7297C15.2916 25.7297 15.4004 25.7152 15.6646 25.5637C16.0453 25.3399 16.3017 24.8491 16.2473 24.4521C16.2007 24.1057 16.0142 23.8458 15.649 23.6148C15.4082 23.4705 15.3072 23.4561 14.2194 23.4561C13.2948 23.4561 12.9918 23.4849 12.7898 23.5788Z" fill="#6A994E" stroke="#6A994E"/>
<path d="M19.3784 23.6148C19.0055 23.853 18.819 24.1201 18.7802 24.4882C18.7258 24.8924 18.9744 25.3399 19.3784 25.5709C19.6504 25.7297 19.6737 25.7297 23.3021 25.7297C26.845 25.7297 26.9616 25.7225 27.2257 25.5781C27.6764 25.3327 27.8628 25.0079 27.8317 24.5315C27.7929 24.0624 27.5831 23.7448 27.1946 23.5715C26.9616 23.4705 26.4876 23.4561 23.2788 23.4561H19.6348L19.3784 23.6148Z" fill="#6A994E" stroke="#6A994E"/>
<path d="M12.9297 29.6706C12.2382 29.9305 11.9274 30.775 12.3314 31.3235C12.6966 31.8215 12.8209 31.8649 14.0951 31.8865C15.4159 31.9154 15.6568 31.8504 16.022 31.4101C16.325 31.042 16.325 30.4502 16.022 30.082C15.6723 29.6562 15.4237 29.5912 14.1961 29.5985C13.6056 29.5985 13.0384 29.6345 12.9297 29.6706Z" fill="#6A994E" stroke="#6A994E"/>
<path d="M19.4717 29.7139C19.3318 29.7789 19.122 29.9449 19.0055 30.082C18.7025 30.4501 18.7103 31.0492 19.0055 31.4101C19.4251 31.9153 19.3396 31.9081 23.4109 31.8865C26.9771 31.8648 27.0626 31.8648 27.2801 31.7132C28.0415 31.1863 28.0415 30.3058 27.2801 29.7789C27.0626 29.6273 26.9771 29.6273 23.3953 29.6129C20.1165 29.5912 19.697 29.6056 19.4717 29.7139Z" fill="#6A994E" stroke="#6A994E"/>
</svg>
